<svg width="142" height="101" viewBox="0 0 142 101" fill="none" xmlns="http://www.w3.org/2000/svg">
<path d="M4.48078 0.849504C3.95932 0.667575 3.38911 0.942819 3.20718 1.46428L0.242474 9.96196C0.0605447 10.4834 0.335789 11.0536 0.857248 11.2356C1.37871 11.4175 1.94892 11.1422 2.13085 10.6208L4.76614 3.06729L12.3196 5.70258C12.8411 5.88451 13.4113 5.60927 13.5932 5.08781C13.7752 4.56635 13.4999 3.99614 12.9785 3.81421L4.48078 0.849504ZM141 99.9985L141.119 99.0056C140.459 98.9264 139.8 98.8437 139.143 98.7573L139.013 99.7488L138.883 100.74C139.547 100.828 140.213 100.911 140.881 100.991L141 99.9985ZM135.065 99.1846L135.217 98.1963C133.904 97.9936 132.597 97.7765 131.296 97.5453L131.121 98.5298L130.946 99.5144C132.262 99.7483 133.584 99.9678 134.912 100.173L135.065 99.1846ZM127.197 97.7864L127.394 96.806C126.095 96.5444 124.801 96.2687 123.515 95.9789L123.295 96.9545L123.075 97.9301C124.377 98.2232 125.685 98.5021 127 98.7667L127.197 97.7864ZM119.408 96.0323L119.649 95.062C118.362 94.7409 117.081 94.4058 115.807 94.0568L115.543 95.0212L115.279 95.9857C116.567 96.3387 117.863 96.6778 119.166 97.0026L119.408 96.0323ZM111.706 93.9224L111.992 92.9643C110.722 92.5845 109.458 92.191 108.202 91.7837L107.894 92.735L107.585 93.6863C108.856 94.0982 110.134 94.4964 111.419 94.8805L111.706 93.9224ZM104.108 91.4589L104.438 90.5151C103.187 90.0771 101.943 89.6256 100.707 89.1606L100.355 90.0966L100.002 91.0325C101.253 91.5029 102.511 91.9598 103.777 92.4028L104.108 91.4589ZM96.6359 88.6485L97.0095 87.7209C95.7791 87.2253 94.5565 86.7163 93.342 86.1941L92.947 87.1128L92.552 88.0315C93.7807 88.5598 95.0175 89.0747 96.2623 89.5761L96.6359 88.6485ZM89.2965 85.4929L89.7126 84.5836C88.5078 84.0321 87.3112 83.4676 86.1231 82.8903L85.686 83.7897L85.2489 84.6891C86.4509 85.2732 87.6614 85.8443 88.8803 86.4021L89.2965 85.4929ZM82.1151 82.0031L82.5728 81.114C81.3941 80.5072 80.2241 79.8876 79.0629 79.2554L78.5847 80.1337L78.1066 81.012C79.2813 81.6515 80.4649 82.2784 81.6573 82.8922L82.1151 82.0031ZM75.0998 78.1842L75.5981 77.3171C74.4496 76.6572 73.3102 75.9848 72.1798 75.3002L71.6618 76.1555L71.1437 77.0109C72.2871 77.7034 73.4398 78.3836 74.6016 79.0512L75.0998 78.1842ZM68.2694 74.0472L68.8069 73.204C67.6896 72.4917 66.5816 71.7673 65.4832 71.031L64.9264 71.8617L64.3696 72.6924C65.4808 73.4371 66.6015 74.1699 67.7318 74.8904L68.2694 74.0472ZM61.6352 69.6008L62.2109 68.7831C61.1279 68.0208 60.0547 67.2468 58.9914 66.4614L58.3973 67.2658L57.8031 68.0702C58.8787 68.8646 59.9642 69.6475 61.0596 70.4185L61.6352 69.6008ZM55.2114 64.856L55.8237 64.0654C54.7763 63.2542 53.7391 62.4318 52.7121 61.5984L52.0819 62.3749L51.4518 63.1514C52.4906 63.9944 53.5397 64.8262 54.5991 65.6466L55.2114 64.856ZM49.0102 59.8239L49.6578 59.0619C48.6487 58.2043 47.65 57.3358 46.6619 56.4568L45.9972 57.2039L45.3326 57.951C46.3319 58.8401 47.342 59.7184 48.3627 60.5859L49.0102 59.8239ZM43.0433 54.5155L43.7247 53.7836C42.7552 52.8811 41.7967 51.9682 40.849 51.0452L40.1513 51.7615L39.4535 52.4779C40.4119 53.4114 41.3814 54.3346 42.3619 55.2474L43.0433 54.5155ZM37.3225 48.9434L38.0362 48.243C37.1086 47.2978 36.1922 46.3427 35.2871 45.378L34.5578 46.0622L33.8285 46.7464C34.7439 47.7221 35.6707 48.688 36.6088 49.6439L37.3225 48.9434ZM31.8581 43.1189L32.6026 42.4513C31.7184 41.4653 30.8458 40.4699 29.9848 39.4653L29.2255 40.1161L28.4662 40.7668C29.3369 41.7828 30.2194 42.7894 31.1136 43.7865L31.8581 43.1189ZM26.6613 37.0553L27.435 36.4217C26.596 35.3972 25.769 34.3636 24.9539 33.3214L24.1662 33.9374L23.3784 34.5534C24.2027 35.6074 25.0391 36.6527 25.8876 37.6888L26.6613 37.0553ZM21.7414 30.764L22.5427 30.1658C21.7506 29.1047 20.9707 28.0351 20.2032 26.9572L19.3886 27.5373L18.574 28.1174C19.3503 29.2074 20.139 30.2891 20.94 31.3622L21.7414 30.764ZM17.109 24.2589L17.9364 23.6972C17.1928 22.6017 16.4617 21.4982 15.7433 20.3869L14.9035 20.9298L14.0637 21.4727C14.7902 22.5965 15.5296 23.7126 16.2816 24.8205L17.109 24.2589ZM12.7731 17.5518L13.6249 17.0279C12.9313 15.9001 12.2506 14.7649 11.5829 13.6224L10.7195 14.1269L9.85613 14.6315C10.5314 15.787 11.2198 16.9351 11.9213 18.0757L12.7731 17.5518ZM8.74368 10.6569L9.61821 10.1719C8.97615 9.01408 8.34731 7.84929 7.73186 6.67778L6.84659 7.14285L5.96132 7.60793C6.58379 8.79279 7.21978 9.97085 7.86915 11.1418L8.74368 10.6569ZM5.02944 3.58668L5.92501 3.14178C5.63059 2.54911 5.33956 1.95484 5.05194 1.35898L4.15137 1.79369L3.2508 2.2284C3.54171 2.83108 3.83607 3.43215 4.13386 4.03158L5.02944 3.58668ZM4.48078 0.849504C3.95932 0.667575 3.38911 0.942819 3.20718 1.46428L0.242474 9.96196C0.0605447 10.4834 0.335789 11.0536 0.857248 11.2356C1.37871 11.4175 1.94892 11.1422 2.13085 10.6208L4.76614 3.06729L12.3196 5.70258C12.8411 5.88451 13.4113 5.60927 13.5932 5.08781C13.7752 4.56635 13.4999 3.99614 12.9785 3.81421L4.48078 0.849504ZM141 99.9985L141.119 99.0056C140.459 98.9264 139.8 98.8437 139.143 98.7573L139.013 99.7488L138.883 100.74C139.547 100.828 140.213 100.911 140.881 100.991L141 99.9985ZM135.065 99.1846L135.217 98.1963C133.904 97.9936 132.597 97.7765 131.296 97.5453L131.121 98.5298L130.946 99.5144C132.262 99.7483 133.584 99.9678 134.912 100.173L135.065 99.1846ZM127.197 97.7864L127.394 96.806C126.095 96.5444 124.801 96.2687 123.515 95.9789L123.295 96.9545L123.075 97.9301C124.377 98.2232 125.685 98.5021 127 98.7667L127.197 97.7864ZM119.408 96.0323L119.649 95.062C118.362 94.7409 117.081 94.4058 115.807 94.0568L115.543 95.0212L115.279 95.9857C116.567 96.3387 117.863 96.6778 119.166 97.0026L119.408 96.0323ZM111.706 93.9224L111.992 92.9643C110.722 92.5845 109.458 92.191 108.202 91.7837L107.894 92.735L107.585 93.6863C108.856 94.0982 110.134 94.4964 111.419 94.8805L111.706 93.9224ZM104.108 91.4589L104.438 90.5151C103.187 90.0771 101.943 89.6256 100.707 89.1606L100.355 90.0966L100.002 91.0325C101.253 91.5029 102.511 91.9598 103.777 92.4028L104.108 91.4589ZM96.6359 88.6485L97.0095 87.7209C95.7791 87.2253 94.5565 86.7163 93.342 86.1941L92.947 87.1128L92.552 88.0315C93.7807 88.5598 95.0175 89.0747 96.2623 89.5761L96.6359 88.6485ZM89.2965 85.4929L89.7126 84.5836C88.5078 84.0321 87.3112 83.4676 86.1231 82.8903L85.686 83.7897L85.2489 84.6891C86.4509 85.2732 87.6614 85.8443 88.8803 86.4021L89.2965 85.4929ZM82.1151 82.0031L82.5728 81.114C81.3941 80.5072 80.2241 79.8876 79.0629 79.2554L78.5847 80.1337L78.1066 81.012C79.2813 81.6515 80.4649 82.2784 81.6573 82.8922L82.1151 82.0031ZM75.0998 78.1842L75.5981 77.3171C74.4496 76.6572 73.3102 75.9848 72.1798 75.3002L71.6618 76.1555L71.1437 77.0109C72.2871 77.7034 73.4398 78.3836 74.6016 79.0512L75.0998 78.1842ZM68.2694 74.0472L68.8069 73.204C67.6896 72.4917 66.5816 71.7673 65.4832 71.031L64.9264 71.8617L64.3696 72.6924C65.4808 73.4371 66.6015 74.1699 67.7318 74.8904L68.2694 74.0472ZM61.6352 69.6008L62.2109 68.7831C61.1279 68.0208 60.0547 67.2468 58.9914 66.4614L58.3973 67.2658L57.8031 68.0702C58.8787 68.8646 59.9642 69.6475 61.0596 70.4185L61.6352 69.6008ZM55.2114 64.856L55.8237 64.0654C54.7763 63.2542 53.7391 62.4318 52.7121 61.5984L52.0819 62.3749L51.4518 63.1514C52.4906 63.9944 53.5397 64.8262 54.5991 65.6466L55.2114 64.856ZM49.0102 59.8239L49.6578 59.0619C48.6487 58.2043 47.65 57.3358 46.6619 56.4568L45.9972 57.2039L45.3326 57.951C46.3319 58.8401 47.342 59.7184 48.3627 60.5859L49.0102 59.8239ZM43.0433 54.5155L43.7247 53.7836C42.7552 52.8811 41.7967 51.9682 40.849 51.0452L40.1513 51.7615L39.4535 52.4779C40.4119 53.4114 41.3814 54.3346 42.3619 55.2474L43.0433 54.5155ZM37.3225 48.9434L38.0362 48.243C37.1086 47.2978 36.1922 46.3427 35.2871 45.378L34.5578 46.0622L33.8285 46.7464C34.7439 47.7221 35.6707 48.688 36.6088 49.6439L37.3225 48.9434ZM31.8581 43.1189L32.6026 42.4513C31.7184 41.4653 30.8458 40.4699 29.9848 39.4653L29.2255 40.1161L28.4662 40.7668C29.3369 41.7828 30.2194 42.7894 31.1136 43.7865L31.8581 43.1189ZM26.6613 37.0553L27.435 36.4217C26.596 35.3972 25.769 34.3636 24.9539 33.3214L24.1662 33.9374L23.3784 34.5534C24.2027 35.6074 25.0391 36.6527 25.8876 37.6888L26.6613 37.0553ZM21.7414 30.764L22.5427 30.1658C21.7506 29.1047 20.9707 28.0351 20.2032 26.9572L19.3886 27.5373L18.574 28.1174C19.3503 29.2074 20.139 30.2891 20.94 31.3622L21.7414 30.764ZM17.109 24.2589L17.9364 23.6972C17.1928 22.6017 16.4617 21.4982 15.7433 20.3869L14.9035 20.9298L14.0637 21.4727C14.7902 22.5965 15.5296 23.7126 16.2816 24.8205L17.109 24.2589ZM12.7731 17.5518L13.6249 17.0279C12.9313 15.9001 12.2506 14.7649 11.5829 13.6224L10.7195 14.1269L9.85613 14.6315C10.5314 15.787 11.2198 16.9351 11.9213 18.0757L12.7731 17.5518ZM8.74368 10.6569L9.61821 10.1719C8.97615 9.01408 8.34731 7.84929 7.73186 6.67778L6.84659 7.14285L5.96132 7.60793C6.58379 8.79279 7.21978 9.97085 7.86915 11.1418L8.74368 10.6569ZM5.02944 3.58668L5.92501 3.14178C5.63059 2.54911 5.33956 1.95484 5.05194 1.35898L4.15137 1.79369L3.2508 2.2284C3.54171 2.83108 3.83607 3.43215 4.13386 4.03158L5.02944 3.58668Z" fill="#838383"/>
</svg>
